<?xml version="1.0" encoding="UTF-8"?>
<!DOCTYPE svg PUBLIC "-//W3C//DTD SVG 1.1//EN" "http://www.w3.org/Graphics/SVG/1.1/DTD/svg11.dtd">
<!-- Creator: CorelDRAW -->
<svg xmlns="http://www.w3.org/2000/svg" xml:space="preserve" width="512px" height="512px" version="1.1" style="shape-rendering:geometricPrecision; text-rendering:geometricPrecision; image-rendering:optimizeQuality; fill-rule:evenodd; clip-rule:evenodd"
viewBox="0 0 512 512"
 xmlns:xlink="http://www.w3.org/1999/xlink"
 xmlns:xodm="http://www.corel.com/coreldraw/odm/2003">
 <defs>
  <style type="text/css">
   <![CDATA[
    .fil0 {fill:#1E1B18}
    .fil2 {fill:#5E514A;fill-rule:nonzero}
    .fil3 {fill:#F5EFE7;fill-rule:nonzero}
    .fil1 {fill:#F5EFE7;fill-rule:nonzero}
   ]]>
  </style>
 </defs>
 <g id="BACK">
  <metadata id="CorelCorpID_0Corel-Layer"/>
  <path class="fil0" d="M120 0l272 0c66,0 120,54 120,120l0 272c0,66 -54,120 -120,120l-272 0c-66,0 -120,-54 -120,-120l0 -272c0,-66 54,-120 120,-120z"/>
 </g>
 <g id="_1">
  <metadata id="CorelCorpID_1Corel-Layer"/>
  <g id="_1984313655344">
   <path class="fil1" d="M79.72 39.22l0 82.37c0,13.14 10.92,17.97 22.94,17.97 12.02,0 22.94,-4.83 22.94,-17.97l0 -82.37 -19.49 0 0 79.2c0,2.76 -0.41,6.49 -3.45,6.49 -3.04,0 -3.46,-3.73 -3.46,-6.49l0 -79.2 -19.48 0zm52.24 98.41l22.94 0c12.03,0 22.94,-4.84 22.94,-17.97l0 -62.47c0,-13.13 -10.91,-17.97 -22.94,-17.97l-22.94 0 0 98.41zm19.49 -84.31l3.45 0c3.04,0 3.46,3.73 3.46,6.5l0 57.21c0,2.77 -0.42,6.5 -3.46,6.5l-3.45 0 0 -70.21zm180.08 -14.1l0 98.41 17.55 0 0 -71.04 0.28 0 11.33 71.04 16.73 0 11.88 -72.42 0.28 0.27 0 72.15 17.55 0 0 -98.41 -27.23 0 -9.67 66.07 -0.28 0 -8.43 -66.07 -29.99 0z"/>
   <path class="fil2" d="M184.2 137.63l19.49 0 0 -46.03c6.63,0 6.91,4.7 6.91,10.92l0 22.39c0,6.77 1.24,9.95 2.63,12.72l19.76 0c-1.11,-3.87 -2.9,-7.88 -2.9,-17.42l0 -19.48c0,-11.2 -2.77,-15.9 -15.07,-16.59l0 -0.28c11.75,-0.69 15.07,-8.7 15.07,-16.03l0 -8.71c0,-15.06 -10.92,-19.9 -22.95,-19.9l-22.94 0 0 98.41zm19.49 -84.31l2.35 0c3.18,0 4.56,1.52 4.56,6.22l0 14.51c0,4.7 -1.38,6.22 -4.56,6.22l-2.35 0 0 -26.95zm69.79 84.31l0 -14.1 -17 0 0 -33.58 16.31 0 0 -14.1 -16.31 0 0 -22.53 17 0 0 -14.1 -36.48 0 0 98.41 36.48 0zm24.19 -40.91l3.18 -40.36 0.55 0 2.63 40.36 -6.36 0zm-22.11 40.91l17.41 0 3.04 -26.82 9.26 0 2.21 26.82 20.32 0 -11.75 -98.41 -25.84 0 -14.65 98.41z"/>
  </g>
 </g>
 <g id="_2">
  <metadata id="CorelCorpID_2Corel-Layer"/>
  <path class="fil3" d="M124.7 195.36l0 183.29c2.67,20.83 8.72,38.8 18.16,53.82 22.52,35.89 60.29,53.81 113.32,53.81 52.79,0 90.44,-17.92 112.96,-53.75 9.44,-15.01 15.5,-33.05 18.16,-54.12l0 -183.05 -34.14 0 0 167.8c-0.97,17.91 -4.72,33.41 -11.26,46.49 -15.68,30.75 -44.19,46.12 -85.54,46.12 -41.34,0 -69.85,-15.01 -85.53,-45.09 -6.54,-12.6 -10.29,-27.67 -11.26,-45.1l0 -170.22 -34.87 0zm43.95 0.36l33.78 0 0 164.53c0.48,11.14 2.54,20.7 6.17,28.69 8.9,19.37 24.82,29.18 47.76,29.42 21.98,0.25 37.29,-9.32 45.95,-28.63 3.63,-8.23 5.81,-18.04 6.54,-29.36l0 -164.65 34.5 0 0 174.46c-1.69,14.95 -5.57,27.78 -11.62,38.44 -15.01,25.6 -40.2,38.44 -75.55,38.44 -35.59,0 -60.77,-12.35 -75.55,-37.05 -6.29,-10.17 -10.28,-22.52 -11.98,-37.05l0 -177.24z"/>
 </g>
</svg>
